<?xml version="1.0" encoding="UTF-8" standalone="no"?>
<svg id="Layer_1" xmlns:rdf="http://www.w3.org/1999/02/22-rdf-syntax-ns#" xmlns="http://www.w3.org/2000/svg" xml:space="preserve" viewBox="0 0 538.092 261.675" width="70" version="1.0" xmlns:cc="http://creativecommons.org/ns#" height="77.58" xmlns:dc="http://purl.org/dc/elements/1.1/"><metadata id="metadata68"><rdf:RDF><cc:Work rdf:about=""><dc:format>image/svg+xml</dc:format><dc:type rdf:resource="http://purl.org/dc/dcmitype/StillImage"/><dc:title/></cc:Work></rdf:RDF></metadata><path id="path141" d="m132.47 427.1c-0.78-23.87 1.2-42.66 2.44-66.46 0.28-5.17-7.15-8.45-8.13-11.53-6.57-20.79-21.98 6.55-24.24 13.89-3.684 11.93-5.851 25.43-5.751 37.95 0.123 14.9-8.648 11.46-3.713 26.02" stroke="#000" stroke-width="3.3249" fill="#bf0000"/><path id="path133" d="m99.981-165.39c-7.491 31.48-5.337 84.898 56.899 150.11 61.57 64.513 219.15 102.13 256.42 158.52 17.94 27.12 20.94-6.54 21.59-18.3 0.64-11.49 5.95-35.288-38.7-59.525-52.16-28.312-191.36-105.87-191.36-105.87 0-0.004-78.75-46.45-90.74-124.96m294.12 556.13c17.94 27.12 20.94-6.54 21.6-18.3 0.63-11.49 5.94-35.27-38.71-59.51-52.15-28.31-191.36-105.88-191.36-105.88s-99.5-58.68-91.85-155.64c0-0.002-56.87 75.22 43.9 180.82 61.57 64.52 219.15 102.11 256.42 158.51z" stroke="#000" stroke-width="3.3249" fill="#8f0000"/><path id="path84" d="m244.48 99.722s139.17 5.9344 139.57 5.9498c7.0721 0.29979 20.655-3.29 20.778-12.184 0.21524-16.458-32.954-13.291-43.247-13.729-18.326-0.81482-36.652-1.6296-54.978-2.4291-5.1811-0.22292-68.584 0.48428-69.644-3.0748z" stroke="#000" stroke-width="3.3249" fill="#7dff00"/><path id="path82" d="m272.76-124.66h151.17s3.8281 4.789 8.1329-8.1329c4.3047-12.922 1.4375-16.75 1.4375-16.75l-169.35-0.2306z" stroke="#000" stroke-width="3.3249" fill="#ffbf00"/><path id="path80" d="m260.32-76.818 13.398-13.391 104.28-19.141s24.875 12.438 15.313 22.008c-9.5626 9.5704-13.875 5.2656-13.875 5.2656l-105.83 15.897z" stroke="#000" stroke-width="3.3249" fill="#ffbf00"/><path id="path78" d="m265.13 146.62 151.04-0.51503 10.093 10.093-10.477 10.477-147.82 3.3516s-10.524 2.0217-10.524-10.524c0-12.545 7.687-12.883 7.687-12.883z" stroke="#000" stroke-width="3.3249" fill="#7dff00"/><path id="path76" d="m262.82 211.25 90.399-17.211-5.8344 18.095-19.133 11.477-61.327 4.2894c0-0.008-11.308-12.499-4.1049-16.65z" stroke="#000" stroke-width="3.3249" fill="#7dff00"/><path id="path74" d="m266.33 17.694c10.969 4.8582 67.792 13.145 54.032 33.4-9.5088 14.006-40.165-6.657-50.734-11.238-6.0036-2.5982-13.045-4.5277-18.533-7.9253 8.1482-1.5374 10.278-12.407 6.3956-18.81 2.8519 1.7219 5.8114 3.2286 8.8401 4.5738z" stroke="#000" stroke-width="3.3249" fill="#7dff00"/><path id="path72" d="m254.12 348.48s123.73 5.9267 124.08 5.9498c6.288 0.29979 18.364-3.2977 18.472-12.184 0.19218-16.458-29.303-13.291-38.451-13.737-16.296-0.80713-32.585-1.622-48.882-2.4214-4.6122-0.23061-60.981 0.48428-61.919-3.0748z" stroke="#000" stroke-width="3.3249" fill="#ffbf00"/><path id="path139" d="m272.54 407.3h146.91s3.7128 4.789 7.9023-8.1406c4.1817-12.907 1.3914-16.742 1.3914-16.742l-164.56-0.2383z" stroke="#000" stroke-width="3.3249" fill="#ffbf00"/><path id="path100" d="m113.94-124.66h163.61s8.1329 1.9141 8.1329-8.1329-6.9337-16.981-6.9337-16.981h-173.42c-0.008 0-10.577 13.668 8.6095 25.114z" stroke="#000" stroke-width="3.3249" fill="#7dff00"/><path id="path98" d="m273.61-66.187c-0.48428 1.5067-15.943 3.4361-17.534 3.782-12.93 2.7981-25.859 5.5962-38.789 8.3865-11.853 2.5598-23.599 4.7275-35.368 7.049-7.9714 1.5605-20.24 7.3257-26.028-1.5989-2.9364-4.5353-3.2439-12.453 3.7743-16.589 0 0 102.1-22.707 116.21-25.321l2.6136 8.8708c0.008 0.0077-4.8813 15.412-4.8813 15.42z" stroke="#000" stroke-width="3.3249" fill="#7dff00"/><path id="path96" d="m110.97 94.21 134.92 5.7653s6.6185 2.2062 7.049-7.8408c0.42279-10.039-4.9966-17.204-4.9966-17.204l-143-6.11c0.008 0-9.2859 13.275 6.0343 25.39z" stroke="#000" stroke-width="3.3249" fill="#ffbf00"/><path id="path94" d="m135.94 173.86s-15.313 3.8281-18.18-8.6095c-2.875-12.438 8.6095-12.438 8.6095-12.438l150.21-6.7031 11.961 11.969-11.961 11.961z" stroke="#000" stroke-width="3.3249" fill="#ffbf00"/><path id="path92" d="m199.09 240.83s-11.484 4.7813-11.484-11.484c0-16.258 6.2188-10.047 6.2188-10.047l90.876-10.547 6.7185 6.7185-9.5704 9.5627z" stroke="#000" stroke-width="3.3249" fill="#ffbf00"/><path id="path90" d="m187.96 2.2581c-3.9742-7.4026 1.5297-15.805 13.268-15.213 24.16 1.2069 42.463 23.338 65.64 28.819 6.0036 1.4221-10.639 12.491-12.292 12.907-9.3244 2.3215-14.636-0.70721-23.038-4.6507-12.44-5.858-26.19-8.663-37.91-16.074-2.68-1.7061-4.55-3.7124-5.67-5.7879z" stroke="#000" stroke-width="3.3249" fill="#ffbf00"/><path id="path88" d="m135.41 342.97 119.96 5.7653s5.896 2.1985 6.2726-7.8408c0.37666-10.047-4.4431-17.204-4.4431-17.204l-127.15-6.1112c0.008 0-8.2559 13.275 5.3655 25.39z" stroke="#000" stroke-width="3.3249" fill="#7dff00"/><path id="path135" d="m118.2 407.3h158.99s7.9022 1.9141 7.9022-8.1406c0-10.047-6.7415-16.981-6.7415-16.981h-168.52c0 0.008-10.27 13.668 8.3712 25.121z" stroke="#000" stroke-width="3.3249" fill="#7dff00"/><path id="path149" d="m120.64-165.41c-9.48 18.61-15.66 40.37-10.21 61.16 9.33 35.618 51.02 93.133 51.02 93.133s-57.4-48.482-65.061-110.99v-43.3m332.2-0.02c2.22 5.11 1.67 10.52-3.7 15.89-10.84 10.84-35.09 22.24-66.97 37.64-31.88 15.403-181.79 86.108-212.4 116.73-30.62 30.613-43.37 44.657-54.858 88.02 0 0 1.722 25.96 0 49.76 0 0 8.825 61.54 61.138 89.6-0.01-0.01-52.213-46.25-44.56-88.33 0 0-3.19-23.6 45.29-72.085 53.57-53.571 207.9-122.54 228.99-129.5 106.52-35.064 50.38-49.105 65.06-91.835 0 0 2.96-6.15-6.12-15.86m1.85 592.49c-0.14-10.44-0.21-20.2-0.2-31.45 0-19.11 3.06-34.27-4.9-49.59-1.68-3.23-3.84-6.48-6.64-9.75-11-12.96-66.28-48.02-80.22-47.46 52.21 32.99 74.34 59.2 76.14 73.16 1.74 13.52-10.21 25.71-14.68 37.99-2.88 7.93-1.46 18.83-1.75 27.08m-305.69-0.01c0.14-4.44-3.22-5.52 4.76-26.87 2.63-7.03 5.87-13.76 9.84-20.07 6.09-9.68 14.26-18.49 22.33-26.54 27.49-27.42 61.94-47.2 97.98-61.08 105.88-40.83 159.46-77.83 159.46-77.83s38.27-24.23 48.48-48.48c0 0-7.66-38.26 0-59.95 0 0-12.16-19.432-57.02-44.077 0 0 35.33 22.392 35.33 44.077 0 21.69-36.36 56.78-47.83 56.78 0 0-198.38 97.57-198.38 97.58-12.96 6.38-21.46 17.93-32.2 27.53-10.13 9.05-20.52 17.94-27.47 29.8-8.76 14.95-17.8 30.05-23.438 46.53-5.096 14.89-8.397 47.42-5.771 62.58" stroke="#000" stroke-width="3.3249" fill="#f00"/></svg>
